<svg xmlns="http://www.w3.org/2000/svg" width="476.931" height="172.993" fill="none" viewBox="0 0 476.931 172.993"><path fill="#1e9eff" d="M149.503 58.674v-.47C149.503 22.3 124.533 0 84.325 0H0v172.993h42.636V119.72H72.02l35.2 53.242h50.11l-41.328-61.179c21.62-9.604 33.501-28.304 33.501-53.109zm-43.105 1.902c0 12.665-9.143 23.537-24.445 23.537H42.636V36.335h38.628c11.483 0 25.134 6.833 25.134 23.772zM222.212 0H179.56v172.993h42.644V0Zm109.662 0h-78.47v172.993h78.47c52.443 0 79.056-36.374 79.056-86.477v-.47C410.938 36.17 384.325 0 331.882 0Zm34.808 86.947c0 27.74-12.007 48.373-39.685 48.373H296.04V37.634h30.965c27.67 0 39.677 20.805 39.677 48.843zM476.923 0h-42.636v172.993h42.644V0Z"/></svg>